<?xml version="1.0" encoding="iso-8859-1"?>
<!-- Generator: Adobe Illustrator 19.0.0, SVG Export Plug-In . SVG Version: 6.00 Build 0)  -->
<svg version="1.1" id="Layer_1" xmlns="http://www.w3.org/2000/svg" xmlns:xlink="http://www.w3.org/1999/xlink" x="0px" y="0px"
	 viewBox="0 0 309.5 309.5" style="enable-background:new 0 0 309.5 309.5;" xml:space="preserve">
<g>
	<g>
		<path style="fill:#4EFFBB;" d="M245.701,43.797C179.425-1.572,88.646,15.411,43.276,81.646
			c-45.372,66.235-28.389,157.058,37.846,202.427s157.058,28.386,202.427-37.89C328.922,179.948,311.936,89.129,245.701,43.797z"/>
		<g id="XMLID_16_">
			<g>
				<path style="fill:#302C58;" d="M233.873,50.652c6.914,26.69-4.974,75.374-40.517,127.294
					c-35.544,51.883-76.626,80.594-104.004,83.746c-5.58-2.709-11.041-5.864-16.336-9.463c-5.258-3.64-10.15-7.56-14.718-11.769
					c-6.954-26.687,4.974-75.414,40.517-127.294c35.503-51.88,76.626-80.591,104.004-83.784c5.58,2.749,11.041,5.864,16.296,9.504
					C224.413,42.485,229.305,46.446,233.873,50.652z"/>
				<path style="fill:#222051;" d="M228.374,25.421C192.418,0.805,149.251-5.446,110.037,4.558
					c-6.158,1.571-8.263,9.273-3.768,13.765l0,0c2.078,2.078,5.089,2.827,7.935,2.099c20.482-5.23,42.161-5.505,63.058-0.341
					c-30.005,12.94-63.73,42.661-91.954,83.868c-28.183,41.205-43.713,83.381-44.926,116.013
					C13.355,181.507,8.869,130.17,30.828,86.991c1.615-3.174,1.125-7.008-1.39-9.532l-0.119-0.119
					c-3.852-3.861-10.419-2.909-12.903,1.946c-32.866,64.195-13.659,144.599,47.378,186.41
					c66.236,45.369,157.058,28.386,202.427-37.89C311.592,161.572,294.61,70.749,228.374,25.421z M73.015,252.229
					c-5.258-3.64-10.15-7.56-14.718-11.769c-6.954-26.687,4.974-75.414,40.517-127.294c35.503-51.88,76.626-80.591,104.004-83.784
					c5.58,2.749,11.038,5.864,16.296,9.504c5.299,3.599,10.191,7.56,14.759,11.766c6.914,26.69-4.974,75.374-40.517,127.294
					c-35.544,51.883-76.626,80.594-104.004,83.746C83.772,258.984,78.314,255.828,73.015,252.229z M252.758,218.588
					c-31.298,45.732-86.98,65.02-137.851,52.405c29.964-12.94,63.73-42.661,91.913-83.825
					c28.227-41.205,43.713-83.381,44.966-116.054C281.913,114.016,284.056,172.894,252.758,218.588z"/>
				<path style="fill:#222051;" d="M86.584,19.066l-0.159-0.159c-2.556-2.556-6.473-3.062-9.654-1.35
					c-15.718,8.476-30.058,19.929-42.07,34.213c-2.721,3.234-2.531,8.004,0.462,10.988c0.062,0.062,0.125,0.125,0.187,0.187
					c3.349,3.337,8.807,3.071,11.85-0.55c10.669-12.7,23.4-22.894,37.359-30.436C89.377,29.36,90.454,22.94,86.584,19.066z"/>
			</g>
		</g>
	</g>
</g>
<g>
</g>
<g>
</g>
<g>
</g>
<g>
</g>
<g>
</g>
<g>
</g>
<g>
</g>
<g>
</g>
<g>
</g>
<g>
</g>
<g>
</g>
<g>
</g>
<g>
</g>
<g>
</g>
<g>
</g>
</svg>
